<svg width="32" height="32" viewBox="0 0 32 32" fill="none" xmlns="http://www.w3.org/2000/svg">
<rect width="32" height="32" rx="6" fill="#0E0E0E"/>
<path d="M15.88 27.32C13.9387 27.32 12.2107 26.9893 10.696 26.328C9.20268 25.6666 8.01868 24.728 7.14401 23.512C6.29068 22.2746 5.86401 20.824 5.86401 19.16C5.86401 18.4986 5.97068 17.8266 6.18401 17.144C6.39735 16.4613 6.66401 15.8213 6.98401 15.224C7.30401 14.6053 7.62401 14.0613 7.94401 13.592C8.26401 13.1013 8.53068 12.7173 8.74401 12.44L14.184 5.23998C14.2693 5.13331 14.408 5.00531 14.6 4.85598C14.792 4.68531 15.048 4.59998 15.368 4.59998H20.712C20.904 4.59998 21.064 4.67464 21.192 4.82398C21.3413 4.95198 21.416 5.11198 21.416 5.30398C21.416 5.38931 21.3947 5.47464 21.352 5.55998C21.3307 5.62398 21.2987 5.67731 21.256 5.71998L17.096 11.32C17.1813 11.32 17.2773 11.32 17.384 11.32C17.512 11.2986 17.608 11.288 17.672 11.288C18.5467 11.3306 19.4533 11.544 20.392 11.928C21.3307 12.2906 22.1947 12.8026 22.984 13.464C23.7947 14.104 24.4453 14.8933 24.936 15.832C25.448 16.7706 25.704 17.8373 25.704 19.032C25.704 20.568 25.288 21.9653 24.456 23.224C23.6453 24.4826 22.504 25.4853 21.032 26.232C19.56 26.9573 17.8427 27.32 15.88 27.32ZM15.816 21.88C16.328 21.88 16.7973 21.784 17.224 21.592C17.672 21.3786 18.024 21.0693 18.28 20.664C18.5573 20.2373 18.696 19.7253 18.696 19.128C18.696 18.552 18.5573 18.0613 18.28 17.656C18.024 17.2506 17.6827 16.9413 17.256 16.728C16.8293 16.5146 16.3493 16.408 15.816 16.408C15.304 16.408 14.824 16.5146 14.376 16.728C13.928 16.9413 13.576 17.2506 13.32 17.656C13.064 18.0613 12.936 18.552 12.936 19.128C12.936 19.7253 13.064 20.2373 13.32 20.664C13.5973 21.0693 13.9493 21.3786 14.376 21.592C14.824 21.784 15.304 21.88 15.816 21.88Z" fill="url(#paint0_linear_14_40)"/>
<defs>
<linearGradient id="paint0_linear_14_40" x1="2.7496" y1="22.5368" x2="24.3105" y2="9.34587" gradientUnits="userSpaceOnUse">
<stop stop-color="#03B4E8"/>
<stop offset="1" stop-color="#CE03F9"/>
</linearGradient>
</defs>
</svg>
