<svg width="140" height="128" viewBox="0 0 140 128" fill="none" xmlns="http://www.w3.org/2000/svg">
<g clip-path="url(#clip0_26_52)">
<path d="M72.6387 144C59.7226 144 48.2258 141.802 38.1484 137.407C28.2129 133.012 20.3355 126.773 14.5161 118.692C8.83871 110.468 6 100.827 6 89.7676C6 85.3723 6.70968 80.9061 8.12903 76.369C9.54839 71.8319 11.3226 67.5784 13.4516 63.6084C15.5806 59.4967 17.7097 55.8812 19.8387 52.762C21.9677 49.5009 23.7419 46.9488 25.1613 45.1056L61.3548 -2.74647C61.9226 -3.4554 62.8452 -4.3061 64.1226 -5.29859C65.4 -6.43286 67.1032 -7 69.2323 -7H104.787C106.065 -7 107.129 -6.50375 107.981 -5.51126C108.974 -4.66056 109.471 -3.59718 109.471 -2.32112C109.471 -1.75399 109.329 -1.18685 109.045 -0.619712C108.903 -0.194366 108.69 0.160094 108.406 0.443667L80.729 37.662C81.2968 37.662 81.9355 37.662 82.6452 37.662C83.4968 37.5202 84.1355 37.4493 84.5613 37.4493C90.3806 37.7329 96.4129 39.1507 102.658 41.7028C108.903 44.1131 114.652 47.516 119.903 51.9113C125.297 56.1648 129.626 61.4108 132.89 67.6493C136.297 73.8878 138 80.977 138 88.9169C138 99.1254 135.232 108.412 129.697 116.777C124.303 125.143 116.71 131.807 106.916 136.769C97.1226 141.59 85.6968 144 72.6387 144ZM72.2129 107.845C75.6194 107.845 78.7419 107.207 81.5807 105.931C84.5613 104.513 86.9032 102.457 88.6065 99.7634C90.4516 96.9277 91.3742 93.5249 91.3742 89.5549C91.3742 85.7268 90.4516 82.4657 88.6065 79.7718C86.9032 77.0779 84.6323 75.0221 81.7936 73.6042C78.9548 72.1864 75.7613 71.4775 72.2129 71.4775C68.8065 71.4775 65.6129 72.1864 62.6323 73.6042C59.6516 75.0221 57.3097 77.0779 55.6065 79.7718C53.9032 82.4657 53.0516 85.7268 53.0516 89.5549C53.0516 93.5249 53.9032 96.9277 55.6065 99.7634C57.4516 102.457 59.7935 104.513 62.6323 105.931C65.6129 107.207 68.8065 107.845 72.2129 107.845Z" fill="white"/>
</g>
<defs>
<clipPath id="clip0_26_52">
<rect width="140" height="128" fill="white"/>
</clipPath>
</defs>
</svg>
